<svg version="1.2" xmlns="http://www.w3.org/2000/svg" xmlns:xlink="http://www.w3.org/1999/xlink" overflow="visible" preserveAspectRatio="none" viewBox="0 0 102 38.7400016784668" width="180" height="65"><g transform="translate(1, 1)"><defs><style>.cls-1_1599545420714{fill:#fff;}.cls-2_1599545420714{fill:#fd484c;}.cls-3_1599545420714{fill:#0c6;}.cls-4_1599545420714{fill:#1b6eef;}.cls-5_1599545420714{fill:#fbdf31;}</style></defs><g id="Layer_2_1599545420714"><g id="Logo_1599545420714"><g id="SA_1599545420714"><rect height="36.74" width="33.12" class="cls-1_1599545420714" vector-effect="non-scaling-stroke"/><g id="SA-2_1599545420714"><path d="M10.61,4.63c3.37,0,4.68,1.49,4.68,4.68v4.42H11.34V9.85c0-.91-.18-1.6-1.16-1.6S9,8.87,9,10.14v.51c0,1.52.29,2.35,1.67,4.13l2.61,3.37c1.85,2.4,2.43,3.74,2.43,6.82v.87c0,3.95-1.67,6.31-5.3,6.31H9.6c-3.3,0-5-1.78-5-5.11V21.63H8.65v4.72c0,1.27.44,1.88,1.35,1.88s1.34-.61,1.34-2.32V25.3c0-2-.18-2.58-1.67-4.54L7.06,17.43a9.58,9.58,0,0,1-2.25-6.67V9.89c0-3.63,1.81-5.26,5-5.26Z" vector-effect="non-scaling-stroke"/><path d="M24,26.78H21l-.51,5.08H16.85l3.3-27H25l3.51,27H24.57Zm-2.58-4h2.14l-1.09-10Z" vector-effect="non-scaling-stroke"/></g></g><g id="Youth_1599545420714"><path d="M45.5,16v11.2H41.41V16L37.71.25h4l1.88,10.08L45.39.25h3.7Z" class="cls-1_1599545420714" vector-effect="non-scaling-stroke"/><path d="M61.17,21.21c0,3.77-1.27,6.35-5.22,6.35h-.69c-3.92,0-5.3-2.58-5.3-6.35V6.2C50,2.43,51.34,0,55.22,0h.69c4,0,5.26,2.47,5.26,6.16ZM57,6c0-1.38-.47-2.06-1.42-2.06S54.13,4.57,54.13,6V21.5c0,1.16.33,2.07,1.49,2.07S57,22.66,57,21.5Z" class="cls-1_1599545420714" vector-effect="non-scaling-stroke"/><path d="M63.38.25h4.17V21.61c0,1.16.4,1.92,1.3,1.92s1.35-.72,1.35-1.92V.25h4.17V21.36c0,3.8-1.53,6.2-5.15,6.2h-.73c-3.62,0-5.11-2.29-5.11-6.2Z" class="cls-1_1599545420714" vector-effect="non-scaling-stroke"/><path d="M87.13.25V4.17H83.68V27.23H79.62V4.17H76.18V.25Z" class="cls-1_1599545420714" vector-effect="non-scaling-stroke"/><path d="M93.11,27.23H89V.25h4.1V11.06H95.9V.25H100v27H95.9V15.37H93.11Z" class="cls-1_1599545420714" vector-effect="non-scaling-stroke"/></g><g id="Bar_1599545420714"><rect height="4.59" width="15.57" y="32.15" x="37.71" class="cls-2_1599545420714" vector-effect="non-scaling-stroke"/><rect height="4.59" width="15.57" y="32.15" x="53.28" class="cls-3_1599545420714" vector-effect="non-scaling-stroke"/><rect height="4.59" width="15.57" y="32.15" x="68.85" class="cls-4_1599545420714" vector-effect="non-scaling-stroke"/><rect height="4.59" width="15.57" y="32.15" x="84.43" class="cls-5_1599545420714" vector-effect="non-scaling-stroke"/></g><g id="SA-3_1599545420714"><rect height="36.74" width="33.12" class="cls-1_1599545420714" vector-effect="non-scaling-stroke"/><g id="SA-4_1599545420714"><path d="M10.61,4.63c3.37,0,4.68,1.49,4.68,4.68v4.42H11.34V9.85c0-.91-.18-1.6-1.16-1.6S9,8.87,9,10.14v.51c0,1.52.29,2.35,1.67,4.13l2.61,3.37c1.85,2.4,2.43,3.74,2.43,6.82v.87c0,3.95-1.67,6.31-5.3,6.31H9.6c-3.3,0-5-1.78-5-5.11V21.63H8.65v4.72c0,1.27.44,1.88,1.35,1.88s1.34-.61,1.34-2.32V25.3c0-2-.18-2.58-1.67-4.54L7.06,17.43a9.58,9.58,0,0,1-2.25-6.67V9.89c0-3.63,1.81-5.26,5-5.26Z" vector-effect="non-scaling-stroke"/><path d="M24,26.78H21l-.51,5.08H16.85l3.3-27H25l3.51,27H24.57Zm-2.58-4h2.14l-1.09-10Z" vector-effect="non-scaling-stroke"/></g></g><g id="Youth-2_1599545420714"><path d="M45.5,16v11.2H41.41V16L37.71.25h4l1.88,10.08L45.39.25h3.7Z" class="cls-1_1599545420714" vector-effect="non-scaling-stroke"/><path d="M61.17,21.21c0,3.77-1.27,6.35-5.22,6.35h-.69c-3.92,0-5.3-2.58-5.3-6.35V6.2C50,2.43,51.34,0,55.22,0h.69c4,0,5.26,2.47,5.26,6.16ZM57,6c0-1.38-.47-2.06-1.42-2.06S54.13,4.57,54.13,6V21.5c0,1.16.33,2.07,1.49,2.07S57,22.66,57,21.5Z" class="cls-1_1599545420714" vector-effect="non-scaling-stroke"/><path d="M63.38.25h4.17V21.61c0,1.16.4,1.92,1.3,1.92s1.35-.72,1.35-1.92V.25h4.17V21.36c0,3.8-1.53,6.2-5.15,6.2h-.73c-3.62,0-5.11-2.29-5.11-6.2Z" class="cls-1_1599545420714" vector-effect="non-scaling-stroke"/><path d="M87.13.25V4.17H83.68V27.23H79.62V4.17H76.18V.25Z" class="cls-1_1599545420714" vector-effect="non-scaling-stroke"/><path d="M93.11,27.23H89V.25h4.1V11.06H95.9V.25H100v27H95.9V15.37H93.11Z" class="cls-1_1599545420714" vector-effect="non-scaling-stroke"/></g><g id="Bar-2_1599545420714"><rect height="4.59" width="15.57" y="32.15" x="37.71" class="cls-2_1599545420714" vector-effect="non-scaling-stroke"/><rect height="4.59" width="15.57" y="32.15" x="53.28" class="cls-3_1599545420714" vector-effect="non-scaling-stroke"/><rect height="4.59" width="15.57" y="32.15" x="68.85" class="cls-4_1599545420714" vector-effect="non-scaling-stroke"/><rect height="4.59" width="15.57" y="32.15" x="84.43" class="cls-5_1599545420714" vector-effect="non-scaling-stroke"/></g></g></g></g></svg>